Coordinates
version=1
nRows=23
nColumns=38
inDegrees=no

Units are S.I. units (second, meters, Newtons, ...)
If the header above contains a line with 'inDegrees', this indicates whether rotational values are in degrees (yes) or radians (no).

endheader
time	pelvis_tilt	pelvis_list	pelvis_rotation	pelvis_tx	pelvis_ty	pelvis_tz	hip_flexion_r	hip_adduction_r	hip_rotation_r	knee_angle_r	ankle_angle_r	subtalar_angle_r	mtp_angle_r	hip_flexion_l	hip_adduction_l	hip_rotation_l	knee_angle_l	ankle_angle_l	subtalar_angle_l	mtp_angle_l	lumbar_extension	lumbar_bending	lumbar_rotation	arm_flex_r	arm_add_r	arm_rot_r	elbow_flex_r	pro_sup_r	wrist_flex_r	wrist_dev_r	arm_flex_l	arm_add_l	arm_rot_l	elbow_flex_l	pro_sup_l	wrist_flex_l	wrist_dev_l
0	2.01654	1.52445	-0.361191	0.748786	-0.16703	0.935723	-0.00766076	0.00905192	0.11935	0.299961	-0.167824	0	0	-0.0560576	-0.0780048	-0.0943247	0.19444	-0.198233	0	0	0.000471883	0.0940943	-0.190229	0.320798	-0.0385444	1.5708	5.76387e-10	0.84335	0	0	-0.0478295	-0.228601	0.327217	0.726582	1.5708	0	0
0.01	1.82717	1.52756	-0.170741	0.748716	-0.166612	0.935539	0.000689335	0.00973802	0.115153	0.29502	-0.172088	0	0	-0.0479784	-0.0764395	-0.0892104	0.188024	-0.203471	0	0	0.0144761	0.0916029	-0.200425	0.331693	-0.0768426	1.5708	0.0831067	0.871926	0	0	-0.0490033	-0.228645	0.332421	0.711229	1.5708	0	0
0.02	1.83117	1.5275	-0.174349	0.74856	-0.166647	0.935498	0.000433482	0.00957706	0.114886	0.294887	-0.172069	0	0	-0.0479708	-0.0763775	-0.0890835	0.188316	-0.203398	0	0	0.0140005	0.0916482	-0.200456	0.330465	-0.077114	1.5708	0.0821881	0.874501	0	0	-0.0481454	-0.228676	0.334317	0.707794	1.5708	0	0
0.03	1.83695	1.5275	-0.179716	0.748376	-0.166668	0.935485	0.00011893	0.00933306	0.114531	0.294768	-0.172045	0	0	-0.0480044	-0.0762229	-0.0890636	0.188643	-0.203296	0	0	0.0134358	0.091604	-0.200569	0.329373	-0.077397	1.5708	0.0806999	0.874828	0	0	-0.0471995	-0.228482	0.335611	0.704063	1.5708	0	0
0.04	1.84551	1.52737	-0.188027	0.748174	-0.166729	0.935493	-0.000115297	0.0092019	0.114549	0.295024	-0.172059	0	0	-0.048131	-0.0761087	-0.0891775	0.189048	-0.203164	0	0	0.0126642	0.0917662	-0.200577	0.328414	-0.0776359	1.5708	0.078704	0.873865	0	0	-0.0461305	-0.228335	0.337237	0.699796	1.5708	0	0
0.05	1.86075	1.52704	-0.203381	0.747965	-0.166841	0.935519	-0.000410238	0.00914078	0.115039	0.295797	-0.172061	0	0	-0.0486741	-0.0760746	-0.0897778	0.189382	-0.202929	0	0	0.0111837	0.0923079	-0.199721	0.327272	-0.0779156	1.5708	0.0769656	0.873794	0	0	-0.0445774	-0.22812	0.33949	0.695423	1.5708	0	0
0.06	1.87683	1.52684	-0.219597	0.747803	-0.166923	0.935552	-0.00091451	0.00893506	0.115273	0.296248	-0.172023	0	0	-0.0493322	-0.0759694	-0.0906804	0.189536	-0.202692	0	0	0.00984319	0.0925521	-0.198968	0.326126	-0.0781241	1.5708	0.0748714	0.873519	0	0	-0.0430431	-0.228015	0.341614	0.691047	1.5708	0	0
0.07	1.89241	1.52668	-0.235148	0.747644	-0.166988	0.93559	-0.00141986	0.00875493	0.115349	0.296752	-0.171942	0	0	-0.0499094	-0.0758282	-0.0912437	0.189921	-0.202461	0	0	0.00843559	0.0927684	-0.198002	0.324645	-0.0783936	1.5708	0.0731743	0.874337	0	0	-0.0413919	-0.228027	0.344184	0.686696	1.5708	0	0
0.08	1.9077	1.52657	-0.25053	0.747502	-0.167062	0.93563	-0.00190409	0.00849339	0.115322	0.297133	-0.171824	0	0	-0.0504793	-0.0756336	-0.0917348	0.190309	-0.202231	0	0	0.00726186	0.0928034	-0.197384	0.323493	-0.0786009	1.5708	0.0711413	0.874562	0	0	-0.0400708	-0.228307	0.346843	0.682389	1.5708	0	0
0.09	1.9223	1.52653	-0.265332	0.747321	-0.167133	0.935663	-0.00233358	0.00808382	0.115341	0.297471	-0.171738	0	0	-0.0510212	-0.0752868	-0.092009	0.19063	-0.202029	0	0	0.00633792	0.0927652	-0.19716	0.322679	-0.0787227	1.5708	0.0684165	0.872998	0	0	-0.0388951	-0.22844	0.348816	0.677987	1.5708	0	0
0.1	1.93966	1.52648	-0.283027	0.747119	-0.167184	0.935677	-0.00291809	0.00752547	0.114904	0.297754	-0.171736	0	0	-0.0518155	-0.0748017	-0.0917587	0.19081	-0.201794	0	0	0.00518677	0.092841	-0.196561	0.321655	-0.0789599	1.5708	0.0663342	0.871891	0	0	-0.0376413	-0.228421	0.350774	0.673589	1.5708	0	0
0.11	1.96179	1.52614	-0.305418	0.746993	-0.167277	0.935732	-0.00370254	0.00736612	0.114789	0.29825	-0.171718	0	0	-0.0529109	-0.0746818	-0.0920362	0.190779	-0.201585	0	0	0.00327707	0.0931219	-0.195219	0.320418	-0.0792317	1.5708	0.0647638	0.873059	0	0	-0.0355315	-0.228793	0.354323	0.669061	1.5708	0	0
0.12	1.97702	1.52586	-0.320778	0.746948	-0.16737	0.935771	-0.00439061	0.00737114	0.114691	0.298106	-0.171644	0	0	-0.0535396	-0.0747521	-0.0927008	0.191008	-0.201437	0	0	0.00193433	0.0931907	-0.194551	0.319477	-0.0793542	1.5708	0.0631532	0.874761	0	0	-0.0340213	-0.229311	0.356682	0.6651	1.5708	0	0
0.13	1.98947	1.52566	-0.333576	0.746901	-0.16743	0.935798	-0.00494093	0.00728822	0.114702	0.297936	-0.171569	0	0	-0.0542395	-0.0746012	-0.0922019	0.190987	-0.2013	0	0	0.000985197	0.0931706	-0.194182	0.318797	-0.0795614	1.5708	0.0616795	0.875711	0	0	-0.0332273	-0.22971	0.357899	0.66149	1.5708	0	0
0.14	1.99939	1.5252	-0.343929	0.746879	-0.167497	0.935824	-0.00540335	0.0075512	0.115171	0.297962	-0.171633	0	0	-0.0550872	-0.0746876	-0.0913005	0.190526	-0.201133	0	0	-3.54447e-05	0.0935206	-0.193534	0.318184	-0.0797081	1.5708	0.0599378	0.876565	0	0	-0.0320387	-0.229878	0.35885	0.6574	1.5708	0	0
0.15	2.00682	1.52485	-0.351696	0.746817	-0.167564	0.935847	-0.00570802	0.00770754	0.115309	0.298086	-0.171782	0	0	-0.0557627	-0.0746946	-0.0906949	0.18999	-0.201034	0	0	-0.000861504	0.0937534	-0.193124	0.317733	-0.079896	1.5708	0.0583231	0.877392	0	0	-0.0310822	-0.23026	0.360124	0.653594	1.5708	0	0
0.16	2.01071	1.52461	-0.355863	0.746756	-0.16763	0.935871	-0.00579464	0.0078234	0.115229	0.298198	-0.171903	0	0	-0.0561356	-0.0747144	-0.0904933	0.189652	-0.200996	0	0	-0.00141758	0.0938909	-0.19295	0.317393	-0.0801502	1.5708	0.0569595	0.878333	0	0	-0.0302624	-0.230631	0.361234	0.650117	1.5708	0	0
0.17	2.01426	1.52438	-0.359783	0.746713	-0.167691	0.935918	-0.00581889	0.00788805	0.115098	0.298369	-0.172008	0	0	-0.056463	-0.0747326	-0.0903517	0.189549	-0.201075	0	0	-0.00194432	0.0939923	-0.19273	0.317147	-0.0804007	1.5708	0.055636	0.879273	0	0	-0.0294068	-0.230836	0.361732	0.646739	1.5708	0	0
0.18	2.01848	1.52438	-0.36437	0.746662	-0.167752	0.935962	-0.0058667	0.00771266	0.11502	0.298401	-0.172186	0	0	-0.0567243	-0.0745359	-0.0903244	0.189502	-0.201238	0	0	-0.00228655	0.0938163	-0.192708	0.317022	-0.0806046	1.5708	0.0544439	0.879907	0	0	-0.0288125	-0.231193	0.362165	0.643466	1.5708	0	0
0.19	2.01754	1.52451	-0.363695	0.746596	-0.167797	0.935957	-0.00565991	0.00747348	0.114799	0.298394	-0.172401	0	0	-0.0566889	-0.0743006	-0.0903309	0.189284	-0.201281	0	0	-0.00228199	0.0935787	-0.192728	0.316887	-0.0808115	1.5708	0.0533716	0.880327	0	0	-0.0283179	-0.23156	0.362475	0.64043	1.5708	0	0
0.2	2.01149	1.52466	-0.358089	0.746551	-0.167855	0.935927	-0.0050531	0.00732396	0.114794	0.298627	-0.172693	0	0	-0.0565536	-0.0740957	-0.090103	0.188771	-0.201358	0	0	-0.00207072	0.0934704	-0.192437	0.31674	-0.0809682	1.5708	0.0521319	0.880821	0	0	-0.0277587	-0.232107	0.363453	0.637518	1.5708	0	0
0.21	2.00528	1.52469	-0.352334	0.746518	-0.167915	0.935911	-0.00448173	0.00730323	0.114826	0.298917	-0.172889	0	0	-0.0564716	-0.0739925	-0.08986	0.188329	-0.201516	0	0	-0.00195203	0.0935686	-0.192078	0.31669	-0.0812601	1.5708	0.0512344	0.88146	0	0	-0.0272539	-0.232529	0.363785	0.635226	1.5708	0	0
0.22	1.99994	1.52466	-0.347391	0.746507	-0.167963	0.935918	-0.00409216	0.00734892	0.114789	0.299001	-0.17301	0	0	-0.0563456	-0.0740121	-0.0897699	0.188244	-0.201698	0	0	-0.00185749	0.0936664	-0.191943	0.316708	-0.0815679	1.5708	0.0506221	0.881989	0	0	-0.0269903	-0.232792	0.36278	0.633352	1.5708	0	0
